<svg width="40" height="40" viewBox="0 0 50 50" fill="none" xmlns="http://www.w3.org/2000/svg">
<path d="M35.2632 35.1818H20.2105C19.4579 35.1818 18.8136 34.897 18.2776 34.3273C17.7417 33.7576 17.4737 33.0727 17.4737 32.2727V11.9091C17.4737 11.1091 17.7417 10.4242 18.2776 9.85455C18.8136 9.28485 19.4579 9 20.2105 9H29.7895L38 17.7273V32.2727C38 33.0727 37.732 33.7576 37.1961 34.3273C36.6601 34.897 36.0158 35.1818 35.2632 35.1818ZM28.4211 19.1818V11.9091H20.2105V32.2727H35.2632V19.1818H28.4211ZM14.7368 41C13.9842 41 13.3399 40.7152 12.8039 40.1455C12.268 39.5758 12 38.8909 12 38.0909V17.7273H14.7368V38.0909H29.7895V41H14.7368Z" fill="#1D1D1D"/>
</svg>
