<svg width="50" height="50" viewBox="0 0 50 50" fill="none" xmlns="http://www.w3.org/2000/svg">
<path d="M37.6081 21.1577H31.2849V15.5H33.0641L37.6081 21.1577Z" fill="#1D1D1D"/>
<path d="M38.3632 22.4846H29.8896V20.1212C29.9024 18.9989 29.896 17.8766 29.8896 16.7609V15.5H11.9888V17.6852C11.9888 17.8502 11.9888 18.0087 11.9888 18.1737C11.9888 18.2793 11.976 18.3916 11.9696 18.5104H10.5616L9.9344 20.3523H12.8272C13.512 20.3523 14.1904 20.3523 14.8816 20.3523H17.544L16.9168 22.2404H15.4576C15.1696 22.247 14.8816 22.2404 14.5872 22.2404H9.6272L9 24.069H9.992C10.0048 24.069 10.0176 24.069 10.0368 24.069C10.1264 24.069 10.2288 24.069 10.3184 24.069H14.0496V24.0624H19.9312L19.304 26.0165H18.3824C18.376 26.0165 18.3696 26.0165 18.3632 26.0165C18.28 26.0165 18.1904 26.0165 18.1136 26.0165H9.6272L9 27.8716H11.9888C11.9888 28.4262 11.9888 28.9675 11.9888 29.5022V31.694H14.7792C14.8432 31.7468 14.8816 31.8393 14.9264 31.9581C15.3936 33.4897 16.7632 34.5063 18.3184 34.4997C19.88 34.4997 21.2368 33.4831 21.704 31.9581C21.7808 31.694 21.896 31.6214 22.1584 31.6214C25.1216 31.628 28.0784 31.628 31.0416 31.6214C31.3168 31.6214 31.432 31.7006 31.5152 31.9713C32.0656 33.7736 33.8384 34.8166 35.656 34.4139C37.0128 34.1102 37.8832 33.252 38.3056 31.9251C38.3376 31.826 38.3696 31.7534 38.4208 31.7072H41V25.1451C39.9696 24.102 39.3936 23.5211 38.3632 22.4846ZM18.312 32.8625C17.2752 32.8625 16.4432 31.9977 16.4432 30.9348C16.4432 29.8653 17.2816 29.0071 18.312 29.0071C19.3488 29.0071 20.1808 29.8719 20.1808 30.9348C20.1872 31.9911 19.3488 32.8625 18.312 32.8625ZM34.8944 32.8625C33.8576 32.8625 33.0256 31.9977 33.0256 30.9348C33.0256 29.8653 33.864 29.0071 34.8944 29.0071C35.9312 29.0071 36.7632 29.8719 36.7632 30.9348C36.7696 31.9911 35.9312 32.8625 34.8944 32.8625Z" fill="#1D1D1D"/>
</svg>
