<svg width="26" height="14" viewBox="0 0 26 14" fill="none" xmlns="http://www.w3.org/2000/svg">
    <path d="M3.15024 6.99992C3.15024 4.92056 4.84048 3.23032 6.91984 3.23032H11.7838V0.919922L6.91984 0.919922C3.56368 0.919922 0.839844 3.64376 0.839844 6.99992C0.839844 10.3561 3.56368 13.0799 6.91984 13.0799H11.7838V10.7695H6.91984C4.84048 10.7695 3.15024 9.07928 3.15024 6.99992ZM8.13584 8.21592H17.8638V5.78392L8.13584 5.78392V8.21592ZM19.0798 0.919922L14.2158 0.919922V3.23032H19.0798C21.1592 3.23032 22.8494 4.92056 22.8494 6.99992C22.8494 9.07928 21.1592 10.7695 19.0798 10.7695L14.2158 10.7695V13.0799L19.0798 13.0799C22.436 13.0799 25.1598 10.3561 25.1598 6.99992C25.1598 3.64376 22.436 0.919922 19.0798 0.919922Z" fill="#1D1D1D"/>
</svg>
