<svg width="128" height="34" viewBox="0 0 128 34" fill="none" xmlns="http://www.w3.org/2000/svg">
<g clip-path="url(#clip0_611_276)">
<path d="M30.5099 14.757V0.0500195H26.6099V19.4529H31.2899L39.4099 4.75587V19.4529H43.2999V0.0500195H38.6199L30.5099 14.757Z" fill="#0088C1"/>
<path d="M17.1101 19.4527H22.7101V5.81477L22.6801 2.81741L17.1101 19.4527Z" fill="#0088C1"/>
<path d="M7.82007 5.81477V19.4527H13.4001L7.85007 2.81741L7.82007 5.81477Z" fill="#0088C1"/>
<path d="M0 16.5354L3.92 19.4528V0.0499013H0V16.5354Z" fill="#00509F"/>
<path d="M10.52 0.0499013L15.23 14.7769H15.31L20.02 0.0499013H10.52Z" fill="#0088C1"/>
<path d="M52.8499 9.12191H51.0699V3.12719H52.8499C55.0999 3.12719 56.1199 4.41606 56.1199 6.04462C56.1359 6.47032 56.0608 6.89453 55.8998 7.28898C55.7388 7.68343 55.4954 8.03904 55.186 8.33213C54.8765 8.62521 54.5081 8.84903 54.1053 8.98866C53.7025 9.12829 53.2745 9.18053 52.8499 9.14189M52.8499 0.0798858H47.1499V19.4828H51.0699V12.1992H53.5899C58.5099 12.1992 60.2799 8.71227 60.2799 6.20448C60.2599 4.88564 59.8399 0.0599035 52.8499 0.0599035V0.0798858Z" fill="#0088C1"/>
<path d="M77.5 19.4528H88.99V16.0158H81.4V11.0602H88.31V7.85301H81.4V3.48687H88.99V0.0499013H77.5V19.4528Z" fill="#0088C1"/>
<path d="M99.87 8.84214L107.43 0.0499013H103.25L96.21 8.34258V0.0499013H92.28V19.4528H96.21V9.82128L103.43 19.4528H108.17L99.87 8.84214Z" fill="#0088C1"/>
<path d="M62.0901 3.48688H65.7001V19.4728H69.6001V3.48688H75.1501V0.0599035H59.8701C60.9133 0.97495 61.6818 2.1613 62.0901 3.48688Z" fill="#0088C1"/>
<path d="M126.3 28.4248C126.149 28.4149 125.997 28.4394 125.857 28.4965C125.717 28.5536 125.591 28.6419 125.49 28.7545C125.269 29.0083 125.139 29.3281 125.12 29.6637H127.32C127.344 29.3394 127.252 29.0171 127.06 28.7545C126.967 28.6446 126.851 28.5577 126.719 28.5004C126.587 28.4432 126.444 28.4174 126.3 28.4248ZM126.46 32.1915C126.188 32.2106 125.915 32.1695 125.661 32.071C125.407 31.9726 125.178 31.8193 124.99 31.622C124.799 31.4141 124.651 31.1698 124.557 30.9037C124.462 30.6376 124.423 30.3552 124.44 30.0734C124.403 29.4971 124.581 28.9277 124.94 28.4748C125.103 28.2819 125.307 28.128 125.537 28.0242C125.767 27.9205 126.018 27.8696 126.27 27.8753C126.505 27.8659 126.739 27.9075 126.957 27.9972C127.174 28.0869 127.37 28.2225 127.53 28.3948C127.85 28.7657 128.018 29.2441 128 29.7337V30.1233H125.1C125.086 30.5237 125.214 30.9163 125.46 31.2323C125.589 31.3647 125.745 31.4679 125.918 31.5351C126.09 31.6023 126.275 31.6319 126.46 31.622C126.917 31.6157 127.369 31.5207 127.79 31.3422V31.9117C127.586 31.9952 127.375 32.0621 127.16 32.1116C126.934 32.1835 126.696 32.2107 126.46 32.1915ZM121.88 28.4248C121.729 28.4149 121.577 28.4394 121.437 28.4965C121.297 28.5536 121.171 28.6419 121.07 28.7545C120.849 29.0083 120.719 29.3281 120.7 29.6637H122.9C122.924 29.3394 122.832 29.0171 122.64 28.7545C122.547 28.6446 122.431 28.5577 122.299 28.5004C122.167 28.4432 122.024 28.4174 121.88 28.4248ZM122.03 32.1915C121.76 32.2098 121.489 32.1683 121.236 32.0698C120.984 31.9714 120.756 31.8185 120.57 31.622C120.379 31.4141 120.231 31.1698 120.137 30.9037C120.042 30.6376 120.003 30.3552 120.02 30.0734C119.983 29.4971 120.161 28.9277 120.52 28.4748C120.683 28.2819 120.887 28.128 121.117 28.0242C121.347 27.9205 121.598 27.8696 121.85 27.8753C122.085 27.8679 122.319 27.9103 122.536 27.9999C122.753 28.0895 122.949 28.2241 123.11 28.3948C123.43 28.7657 123.598 29.2441 123.58 29.7337V30.1233H120.67C120.659 30.525 120.79 30.9176 121.04 31.2323C121.169 31.3647 121.325 31.4679 121.498 31.5351C121.67 31.6023 121.855 31.6319 122.04 31.622C122.501 31.6157 122.956 31.5207 123.38 31.3422V31.9117C123.175 31.9924 122.964 32.0592 122.75 32.1116C122.508 32.1908 122.253 32.2181 122 32.1915H122.03ZM118.19 31.572V27.9852H118.82V31.572H119.42V33.5703H118.76V32.1116H113.16V27.9852H113.79V31.572H115.65V27.9852H116.28V31.572H118.19ZM108.56 27.9852H109.24L110.16 30.3531C110.319 30.7298 110.439 31.1214 110.52 31.5221C110.574 31.2942 110.644 31.0705 110.73 30.8527C110.83 30.543 111.17 29.5838 111.73 27.9852H112.41L110.61 32.711C110.48 33.0883 110.265 33.4303 109.98 33.7102C109.729 33.9111 109.411 34.0109 109.09 33.9899C108.899 33.9832 108.709 33.9665 108.52 33.94V33.4504C108.675 33.4802 108.832 33.4969 108.99 33.5003C109.204 33.4954 109.411 33.4219 109.58 33.2906C109.75 33.1593 109.872 32.9771 109.93 32.771L110.16 32.1815L108.56 27.9852ZM107.17 31.572V28.4748H106.23C106.204 29.0549 106.089 29.6277 105.89 30.1733C105.735 30.6859 105.495 31.1689 105.18 31.602H107.18L107.17 31.572ZM108.4 33.5703H107.77V32.1116H104.77V33.5603H104.14V31.5621H104.48C104.831 31.063 105.104 30.514 105.29 29.9335C105.478 29.2832 105.582 28.6118 105.6 27.9353H107.75V31.5521H108.35V33.5503L108.4 33.5703ZM100.26 27.9852H101L101.91 30.3531C102.071 30.73 102.195 31.1214 102.28 31.5221C102.28 31.3922 102.39 31.1624 102.49 30.8527C102.59 30.543 102.94 29.5838 103.54 27.9852H104.22L102.41 32.711C102.279 33.0856 102.068 33.4267 101.79 33.7102C101.537 33.9085 101.221 34.008 100.9 33.9899C100.706 33.9836 100.512 33.9669 100.32 33.94V33.4504C100.475 33.4794 100.632 33.4961 100.79 33.5003C101.004 33.4954 101.211 33.4219 101.38 33.2906C101.55 33.1593 101.672 32.9771 101.73 32.771L101.97 32.1815L100.26 27.9852ZM98 31.672C98.79 31.672 99.18 31.1824 99.18 30.2033C99.18 29.2241 98.81 28.8045 98.11 28.8045C97.9099 28.8081 97.7126 28.8523 97.53 28.9344C97.3501 29.0146 97.1819 29.1188 97.03 29.2441C96.8893 29.3595 96.7737 29.5022 96.69 29.6637C96.6583 30.1883 96.7652 30.7121 97 31.1824C97.1122 31.3412 97.2626 31.4694 97.4374 31.5549C97.6121 31.6405 97.8056 31.6807 98 31.672ZM96.07 29.6737C96.0289 28.9446 96.1698 28.2168 96.48 27.5556C96.6024 27.3002 96.7827 27.0769 97.0066 26.9034C97.2306 26.73 97.492 26.6112 97.77 26.5565L99.7 26.1768L99.83 26.7163L97.92 27.046C97.7471 27.0817 97.5838 27.1536 97.4407 27.2569C97.2977 27.3603 97.1782 27.4927 97.09 27.6455C96.88 28.0355 96.77 28.4715 96.77 28.9144C96.9274 28.7011 97.1377 28.5324 97.38 28.4248C97.6214 28.301 97.8887 28.2359 98.16 28.235C98.3865 28.22 98.6135 28.2572 98.8233 28.3438C99.0331 28.4304 99.2202 28.5641 99.37 28.7345C99.675 29.124 99.831 29.6093 99.81 30.1033C99.8451 30.655 99.666 31.1989 99.31 31.622C99.1262 31.8059 98.9056 31.9491 98.6626 32.042C98.4197 32.135 98.1598 32.1757 97.9 32.1615C97.6313 32.1716 97.3641 32.1158 97.1219 31.9992C96.8796 31.8825 96.6696 31.7084 96.51 31.4921C96.1306 30.95 95.9504 30.2934 96 29.6338L96.07 29.6737ZM90.15 29.2341C90.15 29.7237 90.52 29.9535 91.23 29.9535H92.23V28.5247H91.05C90.43 28.5247 90.11 28.7545 90.11 29.1941L90.15 29.2341ZM90 32.1116H89.25L90.45 30.3531C90.1593 30.3013 89.893 30.1577 89.69 29.9435C89.51 29.7286 89.4172 29.4541 89.43 29.1742C89.4224 29.0031 89.4536 28.8325 89.5211 28.6751C89.5886 28.5176 89.6908 28.3775 89.82 28.265C90.1275 28.0332 90.505 27.9134 90.89 27.9253H92.78V32.0916H92.15V30.463H91.11L90 32.1116ZM86.55 31.672C86.8913 31.6913 87.2272 31.5807 87.49 31.3622C87.6106 31.2474 87.7037 31.107 87.7626 30.9513C87.8214 30.7957 87.8445 30.6288 87.83 30.463V30.0734H87.2C86.8241 30.0681 86.4518 30.1466 86.11 30.3032C85.9979 30.366 85.9063 30.4596 85.846 30.573C85.7857 30.6864 85.7594 30.8147 85.77 30.9426C85.7613 31.0387 85.7747 31.1356 85.8094 31.2257C85.8441 31.3157 85.899 31.3967 85.97 31.4621C86.0528 31.5356 86.1494 31.5919 86.2541 31.6279C86.3587 31.6639 86.4695 31.6789 86.58 31.672H86.55ZM87.99 32.1116L87.86 31.5221C87.6924 31.7461 87.4772 31.9303 87.23 32.0616C86.983 32.1625 86.7165 32.2068 86.45 32.1915C86.0902 32.2125 85.7349 32.1025 85.45 31.8818C85.3255 31.7665 85.2279 31.6253 85.1639 31.4682C85.1 31.3111 85.0714 31.1419 85.08 30.9726C85.08 30.1533 85.76 29.6837 87.08 29.6637H87.79V29.404C87.8083 29.1468 87.7338 28.8916 87.58 28.6846C87.4903 28.599 87.383 28.5342 87.2655 28.4945C87.148 28.4548 87.0233 28.4412 86.9 28.4548C86.4794 28.4721 86.0671 28.5776 85.69 28.7645L85.51 28.265C85.726 28.1551 85.9543 28.0712 86.19 28.0152C86.4282 27.9501 86.6732 27.9132 86.92 27.9053C87.3258 27.8745 87.7286 27.9956 88.05 28.245C88.1782 28.3882 88.2762 28.5559 88.3381 28.7379C88.3999 28.9198 88.4244 29.1124 88.41 29.304V32.1415L87.99 32.1116ZM84.59 28.4948H83.26V32.1116H82.63V28.4948H81.27V27.9852H84.62V28.5247L84.59 28.4948ZM78.91 28.4248C78.7588 28.4149 78.6074 28.4394 78.467 28.4965C78.3267 28.5536 78.2012 28.6419 78.1 28.7545C77.8831 29.0106 77.7535 29.3291 77.73 29.6637H80C80.0242 29.3394 79.932 29.0171 79.74 28.7545C79.6477 28.6338 79.5251 28.5397 79.3845 28.4818C79.244 28.4239 79.0906 28.4042 78.94 28.4248H78.91ZM79.09 32.1915C78.8197 32.2098 78.5487 32.1683 78.2963 32.0698C78.0439 31.9714 77.8164 31.8185 77.63 31.622C77.4388 31.4141 77.2915 31.1698 77.197 30.9037C77.1025 30.6376 77.0627 30.3552 77.08 30.0734C77.0434 29.4971 77.2215 28.9277 77.58 28.4748C77.7428 28.2819 77.9468 28.128 78.1769 28.0242C78.4071 27.9205 78.6576 27.8696 78.91 27.8753C79.1449 27.8679 79.3786 27.9103 79.5959 27.9999C79.8131 28.0895 80.0088 28.2241 80.17 28.3948C80.4904 28.7657 80.6583 29.2441 80.64 29.7337V30.1233H77.76C77.7347 30.527 77.8673 30.9246 78.13 31.2323C78.2581 31.3663 78.414 31.4706 78.5868 31.5379C78.7596 31.6052 78.945 31.6339 79.13 31.622C79.5905 31.6157 80.0455 31.5207 80.47 31.3422V31.9117C80.2648 31.9924 80.0543 32.0592 79.84 32.1116C79.6076 32.1854 79.3629 32.2125 79.12 32.1915H79.09ZM74.36 28.4248C74.1864 28.4104 74.0117 28.4352 73.8489 28.4975C73.6862 28.5598 73.5396 28.6579 73.42 28.7845C73.2035 29.1121 73.1015 29.502 73.13 29.8935V29.9834C73.089 30.417 73.1908 30.852 73.42 31.2224C73.5348 31.3569 73.6798 31.4623 73.8432 31.53C74.0066 31.5977 74.1837 31.6258 74.36 31.612C74.5289 31.6173 74.6963 31.5797 74.8467 31.5028C74.9971 31.426 75.1255 31.3123 75.22 31.1724C75.4562 30.8214 75.5784 30.4063 75.57 29.9834C75.5913 29.5634 75.4793 29.1473 75.25 28.7945C75.1432 28.6729 75.0105 28.5767 74.8618 28.5127C74.713 28.4488 74.5518 28.4187 74.39 28.4248H74.36ZM74.46 32.1915C74.1993 32.1915 73.9412 32.1406 73.7 32.0416C73.4724 31.9373 73.2759 31.7754 73.13 31.572C73.13 31.8018 73.13 32.0416 73.13 32.2714V33.9799H72.5V27.9852H73.02L73.1 28.5547C73.2414 28.3423 73.4386 28.1729 73.67 28.0651C73.9069 27.9518 74.1675 27.897 74.43 27.9053C74.6738 27.8881 74.918 27.931 75.1412 28.0303C75.3644 28.1296 75.5598 28.2823 75.71 28.4748C76.0471 28.9049 76.227 29.4372 76.22 29.9834C76.2495 30.5542 76.0837 31.1179 75.75 31.582C75.6079 31.7809 75.4181 31.941 75.1979 32.0475C74.9777 32.154 74.7343 32.2035 74.49 32.1915H74.46ZM69.54 31.672C70.33 31.672 70.72 31.1824 70.72 30.2033C70.72 29.2241 70.35 28.8045 69.65 28.8045C69.45 28.8092 69.2529 28.8534 69.07 28.9344C68.892 29.0124 68.7268 29.1168 68.58 29.2441C68.4338 29.3565 68.3143 29.4998 68.23 29.6637C68.2014 30.1892 68.3118 30.713 68.55 31.1824C68.6627 31.3456 68.816 31.4767 68.9949 31.5625C69.1738 31.6484 69.3721 31.6861 69.57 31.672H69.54ZM67.54 29.6737C67.5018 28.9265 67.6604 28.1824 68 27.5156C68.1207 27.261 68.2993 27.038 68.5215 26.8646C68.7438 26.6911 69.0035 26.5719 69.28 26.5165L71.22 26.1368L71.35 26.6764L69.44 27.0061C69.2654 27.0405 69.1001 27.1117 68.9552 27.2151C68.8103 27.3185 68.6892 27.4516 68.6 27.6055C68.3938 27.9966 68.2874 28.4324 68.29 28.8744H68.34C68.4959 28.6637 68.7022 28.4954 68.94 28.3849C69.1845 28.2598 69.4553 28.1947 69.73 28.195C69.955 28.1808 70.1802 28.2184 70.3883 28.3051C70.5964 28.3917 70.7817 28.525 70.93 28.6946C71.2416 29.0805 71.3984 29.5684 71.37 30.0634C71.4089 30.6138 71.2334 31.158 70.88 31.582C70.695 31.7673 70.4728 31.9111 70.228 32.0041C69.9832 32.0972 69.7214 32.1372 69.46 32.1216C69.1927 32.1317 68.9269 32.0759 68.6863 31.9592C68.4456 31.8425 68.2374 31.6683 68.08 31.4521C67.7235 30.9159 67.5579 30.2754 67.61 29.6338L67.54 29.6737ZM63.43 30.0834C63.4023 30.5135 63.5146 30.9411 63.75 31.3023C63.8699 31.4318 64.0152 31.5352 64.177 31.6059C64.3388 31.6766 64.5134 31.7131 64.69 31.7131C64.8666 31.7131 65.0413 31.6766 65.203 31.6059C65.3648 31.5352 65.5102 31.4318 65.63 31.3023C65.8917 30.9362 66.022 30.4927 66 30.0434C66.0285 29.6177 65.9199 29.194 65.69 28.8345C65.5715 28.6874 65.4176 28.5728 65.2427 28.5012C65.0679 28.4295 64.8778 28.4033 64.69 28.4248C64.5115 28.409 64.3319 28.4382 64.1677 28.5098C64.0035 28.5814 63.8598 28.693 63.75 28.8345C63.5528 29.2053 63.4661 29.6248 63.5 30.0434L63.43 30.0834ZM66.65 30.0834C66.6859 30.6567 66.4997 31.222 66.13 31.662C65.948 31.8586 65.7241 32.0118 65.4749 32.1104C65.2256 32.2089 64.9574 32.2503 64.69 32.2315C64.3389 32.2404 63.9923 32.1504 63.69 31.9717C63.3955 31.7929 63.1593 31.5326 63.01 31.2224C62.8515 30.8639 62.773 30.4752 62.78 30.0834C62.7457 29.5132 62.9319 28.9517 63.3 28.5147C63.6847 28.15 64.1947 27.9467 64.725 27.9467C65.2553 27.9467 65.7654 28.15 66.15 28.5147C66.516 28.9403 66.7181 29.4823 66.72 30.0434L66.65 30.0834ZM60.01 29.7237C60.79 29.7237 61.21 29.5239 61.21 29.0842C61.21 28.6446 60.89 28.4648 60.21 28.4648C59.8032 28.4614 59.4005 28.5466 59.03 28.7146L58.8 28.205C59.2561 28.0143 59.7456 27.9158 60.24 27.9153C60.6431 27.9006 61.0421 28.0011 61.39 28.205C61.5236 28.2902 61.6327 28.4087 61.7063 28.5489C61.78 28.6891 61.8157 28.8461 61.81 29.0043C61.8139 29.2255 61.7351 29.4402 61.589 29.6065C61.4429 29.7728 61.2401 29.8787 61.02 29.9035C61.2848 29.974 61.5285 30.1077 61.73 30.2932C61.8874 30.4681 61.97 30.6976 61.96 30.9326C61.971 31.1124 61.9331 31.2918 61.8504 31.4519C61.7676 31.6119 61.6431 31.7467 61.49 31.8418C61.0929 32.0705 60.6376 32.1781 60.18 32.1515C59.6961 32.1777 59.2128 32.0887 58.77 31.8918V31.3223C59.2108 31.5335 59.6913 31.6492 60.18 31.662C60.4717 31.6863 60.764 31.6237 61.02 31.4821C61.1105 31.422 61.1844 31.3403 61.235 31.2443C61.2857 31.1483 61.3115 31.0411 61.31 30.9326C61.31 30.443 60.92 30.2132 60.11 30.2132H59.53V29.6837L60.01 29.7237ZM54.89 27.9852V31.5221L57.14 27.9852H57.93V32.1415H57.33V28.6546L55.06 32.1915H54.27V27.9852H54.89Z" fill="#00509F"/>
<path d="M111.91 3.67668C111.901 4.22217 112.046 4.75911 112.33 5.22531C112.608 5.69582 113.004 6.08515 113.48 6.35432C113.956 6.63303 114.498 6.77802 115.05 6.77395C115.602 6.78478 116.147 6.63931 116.62 6.35432C117.099 6.08988 117.497 5.69944 117.77 5.22531C118.053 4.74811 118.199 4.20161 118.19 3.64671C118.202 3.10088 118.056 2.56316 117.77 2.09807C117.489 1.64078 117.092 1.26526 116.62 1.00903C116.133 0.709421 115.572 0.550353 115 0.549442C114.449 0.539305 113.906 0.681036 113.43 0.959081C112.953 1.23176 112.557 1.62449 112.28 2.09807C112.041 2.59033 111.914 3.12957 111.91 3.67668ZM111.41 3.67668C111.404 3.03901 111.577 2.41245 111.91 1.86828C112.227 1.30981 112.686 0.844611 113.24 0.519469C113.798 0.198618 114.431 0.0297559 115.075 0.0297559C115.719 0.0297559 116.352 0.198618 116.91 0.519469C117.467 0.827646 117.927 1.2842 118.24 1.8383C118.562 2.38704 118.734 3.01059 118.74 3.64671C118.744 4.27074 118.582 4.88467 118.27 5.42514C117.955 5.98846 117.491 6.45491 116.93 6.77395C116.364 7.09945 115.722 7.26845 115.07 7.26352C114.42 7.27109 113.781 7.10185 113.22 6.77395C112.658 6.45491 112.195 5.98846 111.88 5.42514C111.565 4.89652 111.403 4.29157 111.41 3.67668ZM116.57 2.79746C116.572 3.03711 116.499 3.27136 116.36 3.46687C116.215 3.66808 116.013 3.82122 115.78 3.90648L116.93 5.81479H116.12L115.12 4.11629H114.47V5.81479H113.73V1.52858H115C115.414 1.4877 115.83 1.59767 116.17 1.8383C116.307 1.95554 116.415 2.10348 116.485 2.27012C116.554 2.43677 116.583 2.61743 116.57 2.79746ZM114.45 3.51682H115C115.228 3.52063 115.45 3.4466 115.63 3.30701C115.703 3.24409 115.762 3.16584 115.802 3.07779C115.841 2.98974 115.861 2.89404 115.86 2.79746C115.867 2.70054 115.852 2.60319 115.816 2.51305C115.779 2.42291 115.723 2.34243 115.65 2.27792C115.455 2.15907 115.228 2.10324 115 2.11806H114.48L114.45 3.51682Z" fill="#0088C1"/>
<path fill-rule="evenodd" clip-rule="evenodd" d="M115.075 0.0597559C114.436 0.0597559 113.808 0.227222 113.255 0.545412C112.706 0.86789 112.25 1.32925 111.936 1.88309C111.606 2.42246 111.434 3.04434 111.44 3.6764C111.433 4.2858 111.594 4.88593 111.906 5.40979C112.218 5.96833 112.678 6.43153 113.235 6.74786C113.791 7.07302 114.425 7.24103 115.07 7.23352C115.716 7.23841 116.354 7.0708 116.915 6.74795C117.471 6.4316 117.931 5.96903 118.244 5.4105C118.553 4.87468 118.714 4.26568 118.71 3.647C118.704 3.0161 118.533 2.39769 118.214 1.85348C117.904 1.3042 117.448 0.851204 116.895 0.545719C116.342 0.227487 115.714 0.0597559 115.075 0.0597559ZM113.225 0.493462C113.788 0.169992 114.426 -0.000244141 115.075 -0.000244141C115.724 -0.000244141 116.362 0.169949 116.925 0.493339C117.486 0.804168 117.95 1.26459 118.266 1.82334C118.591 2.37656 118.764 3.00517 118.77 3.64643C118.774 4.27571 118.611 4.89491 118.296 5.43996C117.978 6.00798 117.511 6.47829 116.945 6.79999C116.374 7.12808 115.727 7.29844 115.07 7.29352C114.415 7.3011 113.771 7.13048 113.205 6.79995C112.638 6.47827 112.172 6.00802 111.854 5.44015C111.536 4.90693 111.373 4.29679 111.38 3.67665C111.374 3.03364 111.548 2.40183 111.884 1.85304C112.204 1.29017 112.667 0.821181 113.225 0.493462ZM115 0.519442C115.577 0.520408 116.144 0.680859 116.635 0.983055C117.111 1.24177 117.512 1.62081 117.796 2.08237C117.796 2.08236 117.796 2.08237 117.796 2.08237C118.084 2.5522 118.232 3.09539 118.22 3.6468C118.229 4.20702 118.082 4.7587 117.796 5.24045C117.52 5.71909 117.118 6.11327 116.635 6.38031C116.157 6.66796 115.607 6.81481 115.05 6.80395C114.493 6.80799 113.946 6.66162 113.465 6.38033C112.985 6.1086 112.585 5.71562 112.304 5.24075C112.017 4.76975 111.871 4.22734 111.88 3.67632C111.884 3.12476 112.012 2.58117 112.253 2.08497L112.254 2.08288C112.534 1.60482 112.933 1.20839 113.415 0.933103C113.896 0.652375 114.444 0.509253 115 0.519442ZM114.999 0.579437C114.454 0.569401 113.916 0.709715 113.445 0.984985C112.973 1.25486 112.581 1.64361 112.306 2.11222C112.07 2.60021 111.944 3.13468 111.94 3.6769C111.931 4.21675 112.075 4.74838 112.356 5.2097C112.631 5.67571 113.023 6.06164 113.495 6.32821C113.966 6.60419 114.503 6.74798 115.05 6.74395C115.596 6.75467 116.136 6.61069 116.605 6.32863L116.605 6.32804C117.08 6.06624 117.474 5.67972 117.744 5.21034C118.024 4.73789 118.169 4.19652 118.16 3.6472V3.64605C118.172 3.106 118.027 2.57397 117.744 2.11379C117.466 1.66099 117.073 1.28913 116.606 1.0354L116.604 1.03462C116.122 0.737914 115.566 0.580339 114.999 0.579437ZM116.152 1.86199C115.818 1.62609 115.409 1.51831 115.003 1.55844L115 1.55873L113.76 1.55858V5.78479H114.44V4.08629H115.137L116.137 5.78479H116.877L115.736 3.89081L115.77 3.87831C115.997 3.79512 116.194 3.64571 116.336 3.44939C116.471 3.25909 116.542 3.03106 116.54 2.79771L116.54 2.79529C116.553 2.61993 116.524 2.44398 116.457 2.28169C116.389 2.11981 116.284 1.97604 116.152 1.86199ZM114.999 1.49858C115.419 1.4574 115.842 1.5693 116.187 1.81381L116.19 1.81541C116.33 1.93569 116.441 2.08755 116.513 2.2585C116.583 2.42912 116.613 2.61416 116.6 2.79842C116.602 3.04391 116.527 3.28388 116.384 3.48426C116.243 3.68051 116.049 3.83228 115.824 3.9217L116.983 5.84479H116.103L115.103 4.14629H114.5V5.84479H113.7V1.49858H114.999ZM114.999 2.08806C115.233 2.07307 115.466 2.13041 115.666 2.25231L115.67 2.25509C115.747 2.32278 115.805 2.40747 115.844 2.50166C115.881 2.59566 115.897 2.69737 115.89 2.79839C115.891 2.89889 115.87 2.99839 115.829 3.08994C115.788 3.182 115.726 3.26402 115.65 3.32974L115.648 3.33075C115.463 3.47447 115.234 3.55069 115 3.54682H114.419L114.451 2.08806H114.999ZM115.89 2.79839C115.89 2.7988 115.89 2.79921 115.89 2.79962L115.86 2.79746L115.89 2.79715C115.89 2.79756 115.89 2.79798 115.89 2.79839ZM115.632 2.30215C115.443 2.18747 115.223 2.13364 115.002 2.148L115 2.14813L114.509 2.14806L114.481 3.48682H115C115.221 3.49051 115.436 3.41888 115.611 3.28378C115.68 3.22378 115.737 3.14925 115.775 3.0655C115.812 2.98136 115.831 2.88996 115.83 2.79777L115.83 2.79529C115.837 2.70293 115.822 2.61018 115.788 2.52432C115.753 2.43909 115.701 2.36315 115.632 2.30215Z" fill="#0088C1"/>
</g>
<defs>
<clipPath id="clip0_611_276">
<rect width="128" height="34" fill="white"/>
</clipPath>
</defs>
</svg>
