<svg width="16" height="16" viewBox="0 0 50 50" fill="none" xmlns="http://www.w3.org/2000/svg">
<path d="M40.1637 32.4869L35.6865 28.0205C34.0893 26.4272 31.3697 27.0607 30.7282 29.1339C30.2472 30.5673 28.65 31.3671 27.2132 31.0472C24.0188 30.2473 19.702 26.1009 18.9002 22.7543C18.4191 21.321 19.3813 19.7277 20.8181 19.2477C22.8963 18.6079 23.5378 15.9011 21.9342 14.3014L17.457 9.83505C16.1805 8.72165 14.2626 8.72165 13.1401 9.83505L10.1125 12.8745C7.07856 16.0611 10.4333 24.514 17.9445 32.007C25.4556 39.5001 33.929 43.013 37.1233 39.82L40.1573 36.7934C41.2798 35.52 41.2798 33.6067 40.1637 32.4869Z" fill="#FFFFFF"/>
</svg>
