<svg width="50" height="50" viewBox="0 0 50 50" fill="none" xmlns="http://www.w3.org/2000/svg">
<path d="M15.7388 23.365C15.6945 23.5701 15.6542 23.7524 15.5977 24.0107C16.0813 23.9499 16.4964 23.9005 16.9114 23.8473C17.536 23.7714 18.1606 23.6764 18.7852 23.6195C19.3735 23.5663 19.9054 23.7106 20.3286 24.1322C20.385 24.1892 20.4696 24.2385 20.5502 24.2499C21.2352 24.3259 21.9807 24.2727 22.428 23.6688C22.569 23.4751 22.7101 23.2776 22.8713 23.0991C23.2702 22.6623 23.7336 22.7421 23.9311 23.2776C24.1527 23.8739 23.8988 24.3487 23.4918 24.7931C23.3911 24.9032 23.3387 25.0703 23.3065 25.2222C23.2944 25.2754 23.4112 25.4122 23.4556 25.4046C23.5442 25.3932 23.6852 25.3134 23.6893 25.2564C23.7255 24.831 23.9391 24.5044 24.2615 24.2196C24.3179 24.1702 24.3179 24.0486 24.3219 23.9575C24.334 23.7638 24.3139 23.5663 24.334 23.3726C24.3582 23.1105 24.4871 22.9244 24.7652 22.8105C24.9747 22.7269 25.152 22.575 25.3414 22.4497C25.5671 22.2977 25.7726 22.0964 26.0224 21.9901C26.3972 21.8306 26.7961 21.728 27.191 21.6103C27.4368 21.5343 27.6625 21.5609 27.8479 21.7546C28.0292 21.9445 28.1138 22.1686 27.9889 22.4041C27.86 22.6472 27.6947 22.875 27.5739 23.1903C27.9285 23.0915 28.2871 23.008 28.6296 22.8864C28.9359 22.7801 29.2179 22.6206 29.5202 22.5028C30.3342 22.1876 30.6888 22.2901 31.1965 22.9776C31.6196 22.7003 31.8412 22.2863 31.8856 21.8458C31.9742 20.9532 32.5182 20.4671 33.3242 20.11C33.8399 19.8822 34.3235 19.5707 34.7668 19.2327C34.9481 19.096 35.0408 18.8073 35.0972 18.5718C35.2463 17.9337 35.4276 17.3071 35.2503 16.631C35.1697 16.3234 35.4679 16.0309 35.8306 16.0081C36.2134 15.9853 36.6164 16.0081 36.979 16.1069C37.4424 16.2322 37.6439 16.6158 37.5956 17.0488C37.5392 17.5311 37.6802 17.8008 38.196 17.9831C38.8367 18.2072 39.018 18.7731 39.01 19.3694C39.0019 19.8176 38.8931 20.2658 38.877 20.7139C38.8569 21.2229 38.8569 21.7356 38.9133 22.2408C38.9536 22.6092 39.2115 22.8826 39.562 23.0801C40.4324 23.5701 40.8274 24.3601 40.9845 25.2564C41.0893 25.8527 40.65 26.1376 40.0496 25.8945C39.4412 25.6514 38.9898 25.2185 38.6191 24.7133C38.3733 24.3753 38.1678 24.0145 37.9421 23.665C37.8696 23.5549 37.793 23.4485 37.6681 23.2662C37.6439 23.4827 37.6439 23.6119 37.6077 23.7372C37.4948 24.1284 37.4142 24.5348 37.241 24.9032C36.9025 25.621 36.8783 26.3693 36.8944 27.1251C36.8984 27.3872 37.0717 27.5353 37.3739 27.5011C37.5472 27.4821 37.7205 27.4631 37.8897 27.4403C38.1517 27.4099 38.3491 27.5049 38.4337 27.7366C38.7198 28.5532 39.0543 29.3583 39.2437 30.1939C39.4613 31.1472 39.2034 32.0892 38.8891 33.0007C38.7843 33.297 38.5103 33.4489 38.1799 33.4641C37.8333 33.4793 37.5311 33.3387 37.4223 33.0349C37.3135 32.7348 37.2772 32.4006 37.2772 32.0778C37.2772 31.5688 37.1563 31.3979 36.6164 31.3106C36.4874 31.2916 36.3544 31.2574 36.2295 31.2688C35.7379 31.3068 35.3672 31.1434 35.0891 30.7522C34.8877 30.475 34.5532 30.5054 34.2872 30.6041C34.1663 30.6459 34.1059 30.8966 34.0696 31.0599C34.0213 31.2802 34.0334 31.5081 34.0052 31.7321C33.9407 32.2069 33.6707 32.4424 33.1791 32.5601C32.893 32.6285 32.5908 32.731 32.353 32.8944C31.9621 33.1602 31.5632 33.2286 31.0958 33.1716C30.7855 33.1336 30.4389 33.1526 30.1488 33.2476C29.6411 33.4109 29.1736 33.4223 28.7142 33.1526C28.4886 33.0197 28.2629 33.0235 28.0332 33.1412C27.6544 33.3311 27.2797 33.5058 26.8243 33.3843C26.7437 33.3615 26.6269 33.4451 26.5342 33.4945C25.5993 33.9806 24.604 34.0983 23.5684 33.9236C22.8511 33.8021 22.3232 33.4147 21.9525 32.8298C21.8558 32.6817 21.7631 32.5297 21.6704 32.3778C21.5254 32.1423 21.3279 32.017 21.0257 32.0626C20.5945 32.1271 20.3044 31.9372 20.1553 31.5726C20.0344 31.2764 19.8208 31.1776 19.4984 31.1169C19.1479 31.0523 18.8094 30.8814 18.483 30.7257C18.3137 30.6459 18.213 30.6535 18.0478 30.7446C17.6932 30.9421 17.4796 31.208 17.3305 31.5726C17.1169 32.0968 16.6414 32.2031 16.182 31.8347C15.904 31.6106 15.6542 31.3447 15.4446 31.0637C15.1988 30.7333 14.8603 30.5434 14.4815 30.418C14.0383 30.2699 13.6353 30.3914 13.3895 30.756C13.1074 31.1776 12.8818 31.6334 12.6722 32.0892C12.4869 32.4918 12.37 32.9247 12.1967 33.3311C11.9388 33.935 11.4069 34.0528 10.9596 33.559C10.5405 33.1374 10.2222 32.6399 9.92804 32.1385C9.62985 31.6296 9.38404 31.0903 9.15032 30.5509C8.7393 29.6128 9.19062 28.9558 10.2665 28.9292C10.5607 28.9216 10.6695 28.7886 10.6655 28.5608C10.6574 28.2873 10.6211 28.01 10.5728 27.7404C10.3955 26.7643 10.3874 25.7996 10.7461 24.8576C11.1007 23.9157 11.7696 23.308 12.8495 23.1409C13.5265 23.0346 14.0544 22.6927 14.4856 22.2066C14.7153 21.9483 14.9329 21.6748 15.1827 21.4318C15.5816 21.0444 15.9765 20.995 16.4843 21.2419C16.9517 21.4698 17.262 21.823 17.4111 22.3015C17.5199 22.6623 17.4796 23.0004 17.1854 23.27C16.8751 23.5549 16.4923 23.5853 16.0894 23.4827C15.9846 23.4561 15.8879 23.4144 15.7388 23.365Z" fill="#1D1D1D"/>
</svg>
