<svg width="120" height="120" viewBox="0 0 50 50" fill="none" xmlns="http://www.w3.org/2000/svg">
<path d="M27.7255 14.3546C27.6613 14.4183 27.5972 14.4821 27.5972 14.4821C26.7635 15.3108 25.994 16.0757 25.1603 16.9044C25.0962 16.9681 25.0321 17.0319 24.9038 17.0319C21.3768 17.0319 17.8497 17.0319 14.3868 17.0319C12.9118 17.0319 11.6934 18.243 11.6934 19.7092C11.6934 25 11.6934 30.3546 11.6934 35.6454C11.6934 37.1116 12.9118 38.3227 14.3868 38.3227C19.7094 38.3227 25.0962 38.3227 30.4188 38.3227C31.8938 38.3227 33.1122 37.1116 33.1122 35.7092C33.1122 32.2032 33.1122 28.6972 33.1122 25.1912C33.1122 25.0637 33.1122 25 33.2405 24.9363C34.0741 24.1076 34.8437 23.3426 35.6774 22.5139C35.6774 22.5139 35.7415 22.4502 35.7415 22.3865C35.7415 22.4502 35.7415 22.4502 35.7415 22.5139C35.7415 26.9124 35.7415 31.247 35.7415 35.6454C35.7415 38.1952 34.01 40.2988 31.509 40.8725C31.1242 40.9363 30.7395 41 30.3547 41C25.0321 41 19.7094 41 14.3868 41C12.014 41 10.0261 39.5339 9.25651 37.3028C9.06413 36.7291 9 36.2191 9 35.7092C9 34.498 9 33.2869 9 32.0757C9 27.9323 9 23.8526 9 19.7092C9 18.0518 9.64128 16.6494 10.9238 15.5657C11.7575 14.8645 12.7836 14.4821 13.8737 14.4183C14.0661 14.4183 14.3226 14.4183 14.515 14.4183C18.8758 14.4183 23.1723 14.4183 27.5331 14.4183C27.5972 14.3546 27.5972 14.3546 27.7255 14.3546Z" fill="#FFFFFF"/>
<path d="M21.6333 30.2271C20.992 29.5896 20.3507 28.9522 19.7094 28.3147C25.2886 22.7689 30.8677 17.2231 36.4469 11.6773C33.497 11.6773 30.6112 11.6773 27.6613 11.6773C27.6613 10.7849 27.6613 9.89243 27.6613 9C32.0862 9 36.5752 9 41 9C41 13.3984 41 17.8606 41 22.259C40.1022 22.259 39.2044 22.259 38.3066 22.259C38.3066 19.3267 38.3066 16.4582 38.3066 13.5259C32.7916 19.1355 27.2124 24.6813 21.6333 30.2271Z" fill="#FFFFFF"/>
</svg>
