<svg width="15" height="15" viewBox="0 0 50 50" fill="none" xmlns="http://www.w3.org/2000/svg">
<path fill-rule="evenodd" clip-rule="evenodd" d="M30.5163 27.7902L41 38.2739L38.2739 41L27.7902 30.5163C25.8325 31.9251 23.4723 32.785 20.8925 32.785C14.3242 32.785 9 27.4608 9 20.8925C9 14.3242 14.3242 9 20.8925 9C27.4608 9 32.785 14.3242 32.785 20.8925C32.785 23.4723 31.9251 25.8325 30.5163 27.7902ZM20.8925 12.6592C16.3368 12.6592 12.6592 16.3368 12.6592 20.8925C12.6592 25.4483 16.3368 29.1258 20.8925 29.1258C25.4483 29.1258 29.1258 25.4483 29.1258 20.8925C29.1258 16.3368 25.4483 12.6592 20.8925 12.6592Z" fill="#A3A3A3"/>
</svg>
