<svg width="38" height="38" viewBox="0 0 38 38" fill="none" xmlns="http://www.w3.org/2000/svg">
<g id="share">
<path id="Vector" d="M28.5 25.46C27.2967 25.46 26.22 25.935 25.3967 26.6792L14.1075 20.1083C14.1867 19.7442 14.25 19.38 14.25 19C14.25 18.62 14.1867 18.2558 14.1075 17.8917L25.27 11.3842C26.125 12.1758 27.2492 12.6667 28.5 12.6667C31.1283 12.6667 33.25 10.545 33.25 7.91667C33.25 5.28833 31.1283 3.16667 28.5 3.16667C25.8717 3.16667 23.75 5.28833 23.75 7.91667C23.75 8.29667 23.8133 8.66083 23.8925 9.025L12.73 15.5325C11.875 14.7408 10.7508 14.25 9.5 14.25C6.87167 14.25 4.75 16.3717 4.75 19C4.75 21.6283 6.87167 23.75 9.5 23.75C10.7508 23.75 11.875 23.2592 12.73 22.4675L24.0033 29.0383C23.9242 29.3708 23.8767 29.7192 23.8767 30.0833C23.8767 32.6325 25.9508 34.6908 28.5 34.6908C31.0492 34.6908 33.1233 32.6325 33.1233 30.0833C33.1233 27.5342 31.0492 25.46 28.5 25.46ZM28.5 6.33333C29.3708 6.33333 30.0833 7.04583 30.0833 7.91667C30.0833 8.7875 29.3708 9.5 28.5 9.5C27.6292 9.5 26.9167 8.7875 26.9167 7.91667C26.9167 7.04583 27.6292 6.33333 28.5 6.33333ZM9.5 20.5833C8.62917 20.5833 7.91667 19.8708 7.91667 19C7.91667 18.1292 8.62917 17.4167 9.5 17.4167C10.3708 17.4167 11.0833 18.1292 11.0833 19C11.0833 19.8708 10.3708 20.5833 9.5 20.5833ZM28.5 31.6667C27.6292 31.6667 26.9167 30.9542 26.9167 30.0833C26.9167 29.2125 27.6292 28.5 28.5 28.5C29.3708 28.5 30.0833 29.2125 30.0833 30.0833C30.0833 30.9542 29.3708 31.6667 28.5 31.6667Z" fill="#1D1D1D"/>
</g>
</svg>
